<mxfile host="app.diagrams.net" modified="2023-01-29T16:29:26.196Z" agent="5.0 (Windows NT 10.0; Win64; x64) AppleWebKit/537.36 (KHTML, like Gecko) Chrome/108.0.0.0 Safari/537.36 Edg/108.0.1462.76" etag="8ZXVhZa6Qgvr-XMUvnXF" version="20.8.8" type="github">
  <diagram name="第 1 页" id="St3msjXUIHNn50Y84Hwc">
    <mxGraphModel dx="352" dy="206" grid="1" gridSize="10" guides="1" tooltips="1" connect="1" arrows="1" fold="1" page="1" pageScale="1" pageWidth="850" pageHeight="1100" math="0" shadow="0">
      <root>
        <mxCell id="0" />
        <mxCell id="1" parent="0" />
        <mxCell id="D38nj8JYaBJNyV03cMOT-43" value="" style="group" vertex="1" connectable="0" parent="1">
          <mxGeometry x="30" y="80" width="10" height="340" as="geometry" />
        </mxCell>
        <mxCell id="D38nj8JYaBJNyV03cMOT-1" value="" style="ellipse;whiteSpace=wrap;html=1;aspect=fixed;container=0;" vertex="1" parent="D38nj8JYaBJNyV03cMOT-43">
          <mxGeometry width="10" height="10" as="geometry" />
        </mxCell>
        <mxCell id="D38nj8JYaBJNyV03cMOT-8" value="" style="ellipse;whiteSpace=wrap;html=1;aspect=fixed;container=0;" vertex="1" parent="D38nj8JYaBJNyV03cMOT-43">
          <mxGeometry y="10" width="10" height="10" as="geometry" />
        </mxCell>
        <mxCell id="D38nj8JYaBJNyV03cMOT-9" value="" style="ellipse;whiteSpace=wrap;html=1;aspect=fixed;container=0;" vertex="1" parent="D38nj8JYaBJNyV03cMOT-43">
          <mxGeometry y="20" width="10" height="10" as="geometry" />
        </mxCell>
        <mxCell id="D38nj8JYaBJNyV03cMOT-10" value="" style="ellipse;whiteSpace=wrap;html=1;aspect=fixed;container=0;" vertex="1" parent="D38nj8JYaBJNyV03cMOT-43">
          <mxGeometry y="30" width="10" height="10" as="geometry" />
        </mxCell>
        <mxCell id="D38nj8JYaBJNyV03cMOT-11" value="" style="ellipse;whiteSpace=wrap;html=1;aspect=fixed;container=0;" vertex="1" parent="D38nj8JYaBJNyV03cMOT-43">
          <mxGeometry y="40" width="10" height="10" as="geometry" />
        </mxCell>
        <mxCell id="D38nj8JYaBJNyV03cMOT-12" value="" style="ellipse;whiteSpace=wrap;html=1;aspect=fixed;container=0;" vertex="1" parent="D38nj8JYaBJNyV03cMOT-43">
          <mxGeometry y="50" width="10" height="10" as="geometry" />
        </mxCell>
        <mxCell id="D38nj8JYaBJNyV03cMOT-13" value="" style="ellipse;whiteSpace=wrap;html=1;aspect=fixed;container=0;" vertex="1" parent="D38nj8JYaBJNyV03cMOT-43">
          <mxGeometry y="60" width="10" height="10" as="geometry" />
        </mxCell>
        <mxCell id="D38nj8JYaBJNyV03cMOT-14" value="" style="ellipse;whiteSpace=wrap;html=1;aspect=fixed;container=0;" vertex="1" parent="D38nj8JYaBJNyV03cMOT-43">
          <mxGeometry y="70" width="10" height="10" as="geometry" />
        </mxCell>
        <mxCell id="D38nj8JYaBJNyV03cMOT-15" value="" style="ellipse;whiteSpace=wrap;html=1;aspect=fixed;container=0;" vertex="1" parent="D38nj8JYaBJNyV03cMOT-43">
          <mxGeometry y="80" width="10" height="10" as="geometry" />
        </mxCell>
        <mxCell id="D38nj8JYaBJNyV03cMOT-16" value="" style="ellipse;whiteSpace=wrap;html=1;aspect=fixed;container=0;" vertex="1" parent="D38nj8JYaBJNyV03cMOT-43">
          <mxGeometry y="90" width="10" height="10" as="geometry" />
        </mxCell>
        <mxCell id="D38nj8JYaBJNyV03cMOT-17" value="" style="ellipse;whiteSpace=wrap;html=1;aspect=fixed;container=0;" vertex="1" parent="D38nj8JYaBJNyV03cMOT-43">
          <mxGeometry y="100" width="10" height="10" as="geometry" />
        </mxCell>
        <mxCell id="D38nj8JYaBJNyV03cMOT-18" value="" style="ellipse;whiteSpace=wrap;html=1;aspect=fixed;container=0;" vertex="1" parent="D38nj8JYaBJNyV03cMOT-43">
          <mxGeometry y="110" width="10" height="10" as="geometry" />
        </mxCell>
        <mxCell id="D38nj8JYaBJNyV03cMOT-19" value="" style="ellipse;whiteSpace=wrap;html=1;aspect=fixed;container=0;" vertex="1" parent="D38nj8JYaBJNyV03cMOT-43">
          <mxGeometry y="120" width="10" height="10" as="geometry" />
        </mxCell>
        <mxCell id="D38nj8JYaBJNyV03cMOT-20" value="" style="ellipse;whiteSpace=wrap;html=1;aspect=fixed;container=0;" vertex="1" parent="D38nj8JYaBJNyV03cMOT-43">
          <mxGeometry y="130" width="10" height="10" as="geometry" />
        </mxCell>
        <mxCell id="D38nj8JYaBJNyV03cMOT-21" value="" style="ellipse;whiteSpace=wrap;html=1;aspect=fixed;container=0;" vertex="1" parent="D38nj8JYaBJNyV03cMOT-43">
          <mxGeometry y="140" width="10" height="10" as="geometry" />
        </mxCell>
        <mxCell id="D38nj8JYaBJNyV03cMOT-22" value="" style="ellipse;whiteSpace=wrap;html=1;aspect=fixed;container=0;" vertex="1" parent="D38nj8JYaBJNyV03cMOT-43">
          <mxGeometry y="150" width="10" height="10" as="geometry" />
        </mxCell>
        <mxCell id="D38nj8JYaBJNyV03cMOT-23" value="" style="ellipse;whiteSpace=wrap;html=1;aspect=fixed;container=0;" vertex="1" parent="D38nj8JYaBJNyV03cMOT-43">
          <mxGeometry y="160" width="10" height="10" as="geometry" />
        </mxCell>
        <mxCell id="D38nj8JYaBJNyV03cMOT-24" value="" style="ellipse;whiteSpace=wrap;html=1;aspect=fixed;container=0;" vertex="1" parent="D38nj8JYaBJNyV03cMOT-43">
          <mxGeometry y="170" width="10" height="10" as="geometry" />
        </mxCell>
        <mxCell id="D38nj8JYaBJNyV03cMOT-25" value="" style="ellipse;whiteSpace=wrap;html=1;aspect=fixed;container=0;" vertex="1" parent="D38nj8JYaBJNyV03cMOT-43">
          <mxGeometry y="180" width="10" height="10" as="geometry" />
        </mxCell>
        <mxCell id="D38nj8JYaBJNyV03cMOT-26" value="" style="ellipse;whiteSpace=wrap;html=1;aspect=fixed;container=0;" vertex="1" parent="D38nj8JYaBJNyV03cMOT-43">
          <mxGeometry y="190" width="10" height="10" as="geometry" />
        </mxCell>
        <mxCell id="D38nj8JYaBJNyV03cMOT-27" value="" style="ellipse;whiteSpace=wrap;html=1;aspect=fixed;container=0;" vertex="1" parent="D38nj8JYaBJNyV03cMOT-43">
          <mxGeometry y="200" width="10" height="10" as="geometry" />
        </mxCell>
        <mxCell id="D38nj8JYaBJNyV03cMOT-28" value="" style="ellipse;whiteSpace=wrap;html=1;aspect=fixed;container=0;" vertex="1" parent="D38nj8JYaBJNyV03cMOT-43">
          <mxGeometry y="210" width="10" height="10" as="geometry" />
        </mxCell>
        <mxCell id="D38nj8JYaBJNyV03cMOT-29" value="" style="ellipse;whiteSpace=wrap;html=1;aspect=fixed;container=0;" vertex="1" parent="D38nj8JYaBJNyV03cMOT-43">
          <mxGeometry y="220" width="10" height="10" as="geometry" />
        </mxCell>
        <mxCell id="D38nj8JYaBJNyV03cMOT-30" value="" style="ellipse;whiteSpace=wrap;html=1;aspect=fixed;container=0;" vertex="1" parent="D38nj8JYaBJNyV03cMOT-43">
          <mxGeometry y="230" width="10" height="10" as="geometry" />
        </mxCell>
        <mxCell id="D38nj8JYaBJNyV03cMOT-31" value="" style="ellipse;whiteSpace=wrap;html=1;aspect=fixed;container=0;" vertex="1" parent="D38nj8JYaBJNyV03cMOT-43">
          <mxGeometry y="240" width="10" height="10" as="geometry" />
        </mxCell>
        <mxCell id="D38nj8JYaBJNyV03cMOT-32" value="" style="ellipse;whiteSpace=wrap;html=1;aspect=fixed;container=0;" vertex="1" parent="D38nj8JYaBJNyV03cMOT-43">
          <mxGeometry y="250" width="10" height="10" as="geometry" />
        </mxCell>
        <mxCell id="D38nj8JYaBJNyV03cMOT-33" value="" style="ellipse;whiteSpace=wrap;html=1;aspect=fixed;container=0;" vertex="1" parent="D38nj8JYaBJNyV03cMOT-43">
          <mxGeometry y="260" width="10" height="10" as="geometry" />
        </mxCell>
        <mxCell id="D38nj8JYaBJNyV03cMOT-34" value="" style="ellipse;whiteSpace=wrap;html=1;aspect=fixed;container=0;" vertex="1" parent="D38nj8JYaBJNyV03cMOT-43">
          <mxGeometry y="270" width="10" height="10" as="geometry" />
        </mxCell>
        <mxCell id="D38nj8JYaBJNyV03cMOT-35" value="" style="ellipse;whiteSpace=wrap;html=1;aspect=fixed;container=0;" vertex="1" parent="D38nj8JYaBJNyV03cMOT-43">
          <mxGeometry y="280" width="10" height="10" as="geometry" />
        </mxCell>
        <mxCell id="D38nj8JYaBJNyV03cMOT-36" value="" style="ellipse;whiteSpace=wrap;html=1;aspect=fixed;container=0;" vertex="1" parent="D38nj8JYaBJNyV03cMOT-43">
          <mxGeometry y="290" width="10" height="10" as="geometry" />
        </mxCell>
        <mxCell id="D38nj8JYaBJNyV03cMOT-37" value="" style="ellipse;whiteSpace=wrap;html=1;aspect=fixed;container=0;" vertex="1" parent="D38nj8JYaBJNyV03cMOT-43">
          <mxGeometry y="300" width="10" height="10" as="geometry" />
        </mxCell>
        <mxCell id="D38nj8JYaBJNyV03cMOT-38" value="" style="ellipse;whiteSpace=wrap;html=1;aspect=fixed;container=0;" vertex="1" parent="D38nj8JYaBJNyV03cMOT-43">
          <mxGeometry y="310" width="10" height="10" as="geometry" />
        </mxCell>
        <mxCell id="D38nj8JYaBJNyV03cMOT-39" value="" style="ellipse;whiteSpace=wrap;html=1;aspect=fixed;container=0;" vertex="1" parent="D38nj8JYaBJNyV03cMOT-43">
          <mxGeometry y="320" width="10" height="10" as="geometry" />
        </mxCell>
        <mxCell id="D38nj8JYaBJNyV03cMOT-40" value="" style="ellipse;whiteSpace=wrap;html=1;aspect=fixed;container=0;" vertex="1" parent="D38nj8JYaBJNyV03cMOT-43">
          <mxGeometry y="330" width="10" height="10" as="geometry" />
        </mxCell>
        <mxCell id="D38nj8JYaBJNyV03cMOT-79" value="" style="ellipse;whiteSpace=wrap;html=1;aspect=fixed;container=0;" vertex="1" parent="1">
          <mxGeometry x="70" y="90" width="10" height="10" as="geometry" />
        </mxCell>
        <mxCell id="D38nj8JYaBJNyV03cMOT-80" value="" style="ellipse;whiteSpace=wrap;html=1;aspect=fixed;container=0;" vertex="1" parent="1">
          <mxGeometry x="60" y="100" width="10" height="10" as="geometry" />
        </mxCell>
        <mxCell id="D38nj8JYaBJNyV03cMOT-81" value="" style="ellipse;whiteSpace=wrap;html=1;aspect=fixed;container=0;" vertex="1" parent="1">
          <mxGeometry x="70" y="120" width="10" height="10" as="geometry" />
        </mxCell>
        <mxCell id="D38nj8JYaBJNyV03cMOT-84" value="" style="ellipse;whiteSpace=wrap;html=1;aspect=fixed;container=0;" vertex="1" parent="1">
          <mxGeometry x="60" y="130" width="10" height="10" as="geometry" />
        </mxCell>
        <mxCell id="D38nj8JYaBJNyV03cMOT-85" value="" style="ellipse;whiteSpace=wrap;html=1;aspect=fixed;container=0;" vertex="1" parent="1">
          <mxGeometry x="70" y="150" width="10" height="10" as="geometry" />
        </mxCell>
        <mxCell id="D38nj8JYaBJNyV03cMOT-86" value="" style="ellipse;whiteSpace=wrap;html=1;aspect=fixed;container=0;" vertex="1" parent="1">
          <mxGeometry x="60" y="160" width="10" height="10" as="geometry" />
        </mxCell>
        <mxCell id="D38nj8JYaBJNyV03cMOT-87" value="" style="ellipse;whiteSpace=wrap;html=1;aspect=fixed;container=0;" vertex="1" parent="1">
          <mxGeometry x="70" y="180" width="10" height="10" as="geometry" />
        </mxCell>
        <mxCell id="D38nj8JYaBJNyV03cMOT-88" value="" style="ellipse;whiteSpace=wrap;html=1;aspect=fixed;container=0;" vertex="1" parent="1">
          <mxGeometry x="60" y="190" width="10" height="10" as="geometry" />
        </mxCell>
        <mxCell id="D38nj8JYaBJNyV03cMOT-89" value="" style="ellipse;whiteSpace=wrap;html=1;aspect=fixed;container=0;" vertex="1" parent="1">
          <mxGeometry x="70" y="210" width="10" height="10" as="geometry" />
        </mxCell>
        <mxCell id="D38nj8JYaBJNyV03cMOT-90" value="" style="ellipse;whiteSpace=wrap;html=1;aspect=fixed;container=0;" vertex="1" parent="1">
          <mxGeometry x="60" y="220" width="10" height="10" as="geometry" />
        </mxCell>
        <mxCell id="D38nj8JYaBJNyV03cMOT-91" value="" style="ellipse;whiteSpace=wrap;html=1;aspect=fixed;container=0;" vertex="1" parent="1">
          <mxGeometry x="70" y="240" width="10" height="10" as="geometry" />
        </mxCell>
        <mxCell id="D38nj8JYaBJNyV03cMOT-92" value="" style="ellipse;whiteSpace=wrap;html=1;aspect=fixed;container=0;" vertex="1" parent="1">
          <mxGeometry x="60" y="250" width="10" height="10" as="geometry" />
        </mxCell>
        <mxCell id="D38nj8JYaBJNyV03cMOT-95" value="" style="ellipse;whiteSpace=wrap;html=1;aspect=fixed;container=0;" vertex="1" parent="1">
          <mxGeometry x="70" y="270" width="10" height="10" as="geometry" />
        </mxCell>
        <mxCell id="D38nj8JYaBJNyV03cMOT-96" value="" style="ellipse;whiteSpace=wrap;html=1;aspect=fixed;container=0;" vertex="1" parent="1">
          <mxGeometry x="60" y="280" width="10" height="10" as="geometry" />
        </mxCell>
        <mxCell id="D38nj8JYaBJNyV03cMOT-97" value="" style="ellipse;whiteSpace=wrap;html=1;aspect=fixed;container=0;" vertex="1" parent="1">
          <mxGeometry x="70" y="300" width="10" height="10" as="geometry" />
        </mxCell>
        <mxCell id="D38nj8JYaBJNyV03cMOT-98" value="" style="ellipse;whiteSpace=wrap;html=1;aspect=fixed;container=0;" vertex="1" parent="1">
          <mxGeometry x="60" y="310" width="10" height="10" as="geometry" />
        </mxCell>
        <mxCell id="D38nj8JYaBJNyV03cMOT-99" value="" style="ellipse;whiteSpace=wrap;html=1;aspect=fixed;container=0;" vertex="1" parent="1">
          <mxGeometry x="70" y="330" width="10" height="10" as="geometry" />
        </mxCell>
        <mxCell id="D38nj8JYaBJNyV03cMOT-100" value="" style="ellipse;whiteSpace=wrap;html=1;aspect=fixed;container=0;" vertex="1" parent="1">
          <mxGeometry x="60" y="340" width="10" height="10" as="geometry" />
        </mxCell>
        <mxCell id="D38nj8JYaBJNyV03cMOT-101" value="" style="ellipse;whiteSpace=wrap;html=1;aspect=fixed;container=0;" vertex="1" parent="1">
          <mxGeometry x="70" y="360" width="10" height="10" as="geometry" />
        </mxCell>
        <mxCell id="D38nj8JYaBJNyV03cMOT-102" value="" style="ellipse;whiteSpace=wrap;html=1;aspect=fixed;container=0;" vertex="1" parent="1">
          <mxGeometry x="60" y="370" width="10" height="10" as="geometry" />
        </mxCell>
        <mxCell id="D38nj8JYaBJNyV03cMOT-103" value="" style="ellipse;whiteSpace=wrap;html=1;aspect=fixed;container=0;" vertex="1" parent="1">
          <mxGeometry x="70" y="390" width="10" height="10" as="geometry" />
        </mxCell>
        <mxCell id="D38nj8JYaBJNyV03cMOT-104" value="" style="ellipse;whiteSpace=wrap;html=1;aspect=fixed;container=0;" vertex="1" parent="1">
          <mxGeometry x="60" y="400" width="10" height="10" as="geometry" />
        </mxCell>
        <mxCell id="D38nj8JYaBJNyV03cMOT-105" value="" style="ellipse;whiteSpace=wrap;html=1;aspect=fixed;container=0;" vertex="1" parent="1">
          <mxGeometry x="30" y="480" width="10" height="10" as="geometry" />
        </mxCell>
        <mxCell id="D38nj8JYaBJNyV03cMOT-106" value="" style="ellipse;whiteSpace=wrap;html=1;aspect=fixed;container=0;" vertex="1" parent="1">
          <mxGeometry x="120" y="160" width="10" height="10" as="geometry" />
        </mxCell>
        <mxCell id="D38nj8JYaBJNyV03cMOT-107" value="" style="ellipse;whiteSpace=wrap;html=1;aspect=fixed;container=0;" vertex="1" parent="1">
          <mxGeometry x="130" y="150" width="10" height="10" as="geometry" />
        </mxCell>
        <mxCell id="D38nj8JYaBJNyV03cMOT-108" value="" style="ellipse;whiteSpace=wrap;html=1;aspect=fixed;container=0;" vertex="1" parent="1">
          <mxGeometry x="110" y="160" width="10" height="10" as="geometry" />
        </mxCell>
        <mxCell id="D38nj8JYaBJNyV03cMOT-109" value="" style="ellipse;whiteSpace=wrap;html=1;aspect=fixed;container=0;" vertex="1" parent="1">
          <mxGeometry x="120" y="150" width="10" height="10" as="geometry" />
        </mxCell>
        <mxCell id="D38nj8JYaBJNyV03cMOT-112" value="" style="ellipse;whiteSpace=wrap;html=1;aspect=fixed;container=0;" vertex="1" parent="1">
          <mxGeometry x="120" y="250" width="10" height="10" as="geometry" />
        </mxCell>
        <mxCell id="D38nj8JYaBJNyV03cMOT-113" value="" style="ellipse;whiteSpace=wrap;html=1;aspect=fixed;container=0;" vertex="1" parent="1">
          <mxGeometry x="130" y="240" width="10" height="10" as="geometry" />
        </mxCell>
        <mxCell id="D38nj8JYaBJNyV03cMOT-114" value="" style="ellipse;whiteSpace=wrap;html=1;aspect=fixed;container=0;" vertex="1" parent="1">
          <mxGeometry x="110" y="250" width="10" height="10" as="geometry" />
        </mxCell>
        <mxCell id="D38nj8JYaBJNyV03cMOT-115" value="" style="ellipse;whiteSpace=wrap;html=1;aspect=fixed;container=0;" vertex="1" parent="1">
          <mxGeometry x="120" y="240" width="10" height="10" as="geometry" />
        </mxCell>
        <mxCell id="D38nj8JYaBJNyV03cMOT-116" value="" style="ellipse;whiteSpace=wrap;html=1;aspect=fixed;container=0;" vertex="1" parent="1">
          <mxGeometry x="120" y="340" width="10" height="10" as="geometry" />
        </mxCell>
        <mxCell id="D38nj8JYaBJNyV03cMOT-117" value="" style="ellipse;whiteSpace=wrap;html=1;aspect=fixed;container=0;" vertex="1" parent="1">
          <mxGeometry x="130" y="330" width="10" height="10" as="geometry" />
        </mxCell>
        <mxCell id="D38nj8JYaBJNyV03cMOT-118" value="" style="ellipse;whiteSpace=wrap;html=1;aspect=fixed;container=0;" vertex="1" parent="1">
          <mxGeometry x="110" y="340" width="10" height="10" as="geometry" />
        </mxCell>
        <mxCell id="D38nj8JYaBJNyV03cMOT-119" value="" style="ellipse;whiteSpace=wrap;html=1;aspect=fixed;container=0;" vertex="1" parent="1">
          <mxGeometry x="120" y="330" width="10" height="10" as="geometry" />
        </mxCell>
        <mxCell id="D38nj8JYaBJNyV03cMOT-120" value="" style="ellipse;whiteSpace=wrap;html=1;aspect=fixed;container=0;" vertex="1" parent="1">
          <mxGeometry x="130" y="410" width="10" height="10" as="geometry" />
        </mxCell>
        <mxCell id="D38nj8JYaBJNyV03cMOT-121" value="" style="ellipse;whiteSpace=wrap;html=1;aspect=fixed;container=0;" vertex="1" parent="1">
          <mxGeometry x="120" y="410" width="10" height="10" as="geometry" />
        </mxCell>
        <mxCell id="D38nj8JYaBJNyV03cMOT-122" value="" style="ellipse;whiteSpace=wrap;html=1;aspect=fixed;container=0;" vertex="1" parent="1">
          <mxGeometry x="110" y="370" width="10" height="10" as="geometry" />
        </mxCell>
        <mxCell id="D38nj8JYaBJNyV03cMOT-123" value="" style="ellipse;whiteSpace=wrap;html=1;aspect=fixed;container=0;" vertex="1" parent="1">
          <mxGeometry x="110" y="400" width="10" height="10" as="geometry" />
        </mxCell>
        <mxCell id="D38nj8JYaBJNyV03cMOT-124" value="" style="ellipse;whiteSpace=wrap;html=1;aspect=fixed;container=0;" vertex="1" parent="1">
          <mxGeometry x="210" y="330" width="10" height="10" as="geometry" />
        </mxCell>
        <mxCell id="D38nj8JYaBJNyV03cMOT-125" value="" style="ellipse;whiteSpace=wrap;html=1;aspect=fixed;container=0;" vertex="1" parent="1">
          <mxGeometry x="200" y="330" width="10" height="10" as="geometry" />
        </mxCell>
        <mxCell id="D38nj8JYaBJNyV03cMOT-126" value="" style="ellipse;whiteSpace=wrap;html=1;aspect=fixed;container=0;" vertex="1" parent="1">
          <mxGeometry x="210" y="410" width="10" height="10" as="geometry" />
        </mxCell>
        <mxCell id="D38nj8JYaBJNyV03cMOT-127" value="" style="ellipse;whiteSpace=wrap;html=1;aspect=fixed;container=0;" vertex="1" parent="1">
          <mxGeometry x="190" y="240" width="10" height="10" as="geometry" />
        </mxCell>
        <mxCell id="D38nj8JYaBJNyV03cMOT-128" value="" style="ellipse;whiteSpace=wrap;html=1;aspect=fixed;container=0;" vertex="1" parent="1">
          <mxGeometry x="200" y="240" width="10" height="10" as="geometry" />
        </mxCell>
        <mxCell id="D38nj8JYaBJNyV03cMOT-137" value="" style="ellipse;whiteSpace=wrap;html=1;aspect=fixed;container=0;" vertex="1" parent="1">
          <mxGeometry x="200" y="340" width="10" height="10" as="geometry" />
        </mxCell>
        <mxCell id="D38nj8JYaBJNyV03cMOT-138" value="" style="ellipse;whiteSpace=wrap;html=1;aspect=fixed;container=0;" vertex="1" parent="1">
          <mxGeometry x="190" y="340" width="10" height="10" as="geometry" />
        </mxCell>
        <mxCell id="D38nj8JYaBJNyV03cMOT-139" value="" style="ellipse;whiteSpace=wrap;html=1;aspect=fixed;container=0;" vertex="1" parent="1">
          <mxGeometry x="200" y="410" width="10" height="10" as="geometry" />
        </mxCell>
        <mxCell id="D38nj8JYaBJNyV03cMOT-140" value="" style="ellipse;whiteSpace=wrap;html=1;aspect=fixed;container=0;" vertex="1" parent="1">
          <mxGeometry x="190" y="350" width="10" height="10" as="geometry" />
        </mxCell>
        <mxCell id="D38nj8JYaBJNyV03cMOT-141" value="" style="ellipse;whiteSpace=wrap;html=1;aspect=fixed;container=0;" vertex="1" parent="1">
          <mxGeometry x="180" y="350" width="10" height="10" as="geometry" />
        </mxCell>
        <mxCell id="D38nj8JYaBJNyV03cMOT-142" value="" style="ellipse;whiteSpace=wrap;html=1;aspect=fixed;container=0;" vertex="1" parent="1">
          <mxGeometry x="190" y="370" width="10" height="10" as="geometry" />
        </mxCell>
        <mxCell id="D38nj8JYaBJNyV03cMOT-143" value="" style="ellipse;whiteSpace=wrap;html=1;aspect=fixed;container=0;" vertex="1" parent="1">
          <mxGeometry x="190" y="400" width="10" height="10" as="geometry" />
        </mxCell>
        <mxCell id="D38nj8JYaBJNyV03cMOT-144" value="" style="ellipse;whiteSpace=wrap;html=1;aspect=fixed;container=0;" vertex="1" parent="1">
          <mxGeometry x="310" y="330" width="10" height="10" as="geometry" />
        </mxCell>
        <mxCell id="D38nj8JYaBJNyV03cMOT-146" value="" style="ellipse;whiteSpace=wrap;html=1;aspect=fixed;container=0;" vertex="1" parent="1">
          <mxGeometry x="310" y="410" width="10" height="10" as="geometry" />
        </mxCell>
        <mxCell id="D38nj8JYaBJNyV03cMOT-156" value="" style="ellipse;whiteSpace=wrap;html=1;aspect=fixed;container=0;" vertex="1" parent="1">
          <mxGeometry x="290" y="340" width="10" height="10" as="geometry" />
        </mxCell>
        <mxCell id="D38nj8JYaBJNyV03cMOT-157" value="" style="ellipse;whiteSpace=wrap;html=1;aspect=fixed;container=0;" vertex="1" parent="1">
          <mxGeometry x="300" y="340" width="10" height="10" as="geometry" />
        </mxCell>
        <mxCell id="D38nj8JYaBJNyV03cMOT-158" value="" style="ellipse;whiteSpace=wrap;html=1;aspect=fixed;container=0;" vertex="1" parent="1">
          <mxGeometry x="300" y="410" width="10" height="10" as="geometry" />
        </mxCell>
        <mxCell id="D38nj8JYaBJNyV03cMOT-159" value="" style="ellipse;whiteSpace=wrap;html=1;aspect=fixed;container=0;" vertex="1" parent="1">
          <mxGeometry x="280" y="350" width="10" height="10" as="geometry" />
        </mxCell>
        <mxCell id="D38nj8JYaBJNyV03cMOT-160" value="" style="ellipse;whiteSpace=wrap;html=1;aspect=fixed;container=0;" vertex="1" parent="1">
          <mxGeometry x="290" y="350" width="10" height="10" as="geometry" />
        </mxCell>
        <mxCell id="D38nj8JYaBJNyV03cMOT-161" value="" style="ellipse;whiteSpace=wrap;html=1;aspect=fixed;container=0;" vertex="1" parent="1">
          <mxGeometry x="290" y="370" width="10" height="10" as="geometry" />
        </mxCell>
        <mxCell id="D38nj8JYaBJNyV03cMOT-162" value="" style="ellipse;whiteSpace=wrap;html=1;aspect=fixed;container=0;" vertex="1" parent="1">
          <mxGeometry x="290" y="400" width="10" height="10" as="geometry" />
        </mxCell>
        <mxCell id="D38nj8JYaBJNyV03cMOT-163" value="" style="ellipse;whiteSpace=wrap;html=1;aspect=fixed;container=0;" vertex="1" parent="1">
          <mxGeometry x="280" y="360" width="10" height="10" as="geometry" />
        </mxCell>
        <mxCell id="D38nj8JYaBJNyV03cMOT-164" value="" style="ellipse;whiteSpace=wrap;html=1;aspect=fixed;container=0;" vertex="1" parent="1">
          <mxGeometry x="390" y="330" width="10" height="10" as="geometry" />
        </mxCell>
        <mxCell id="D38nj8JYaBJNyV03cMOT-165" value="" style="ellipse;whiteSpace=wrap;html=1;aspect=fixed;container=0;" vertex="1" parent="1">
          <mxGeometry x="390" y="410" width="10" height="10" as="geometry" />
        </mxCell>
        <mxCell id="D38nj8JYaBJNyV03cMOT-166" value="" style="ellipse;whiteSpace=wrap;html=1;aspect=fixed;container=0;" vertex="1" parent="1">
          <mxGeometry x="360" y="370" width="10" height="10" as="geometry" />
        </mxCell>
        <mxCell id="D38nj8JYaBJNyV03cMOT-167" value="" style="ellipse;whiteSpace=wrap;html=1;aspect=fixed;container=0;" vertex="1" parent="1">
          <mxGeometry x="380" y="340" width="10" height="10" as="geometry" />
        </mxCell>
        <mxCell id="D38nj8JYaBJNyV03cMOT-168" value="" style="ellipse;whiteSpace=wrap;html=1;aspect=fixed;container=0;" vertex="1" parent="1">
          <mxGeometry x="380" y="410" width="10" height="10" as="geometry" />
        </mxCell>
        <mxCell id="D38nj8JYaBJNyV03cMOT-169" value="" style="ellipse;whiteSpace=wrap;html=1;aspect=fixed;container=0;" vertex="1" parent="1">
          <mxGeometry x="360" y="350" width="10" height="10" as="geometry" />
        </mxCell>
        <mxCell id="D38nj8JYaBJNyV03cMOT-171" value="" style="ellipse;whiteSpace=wrap;html=1;aspect=fixed;container=0;" vertex="1" parent="1">
          <mxGeometry x="370" y="370" width="10" height="10" as="geometry" />
        </mxCell>
        <mxCell id="D38nj8JYaBJNyV03cMOT-172" value="" style="ellipse;whiteSpace=wrap;html=1;aspect=fixed;container=0;" vertex="1" parent="1">
          <mxGeometry x="370" y="400" width="10" height="10" as="geometry" />
        </mxCell>
        <mxCell id="D38nj8JYaBJNyV03cMOT-173" value="" style="ellipse;whiteSpace=wrap;html=1;aspect=fixed;container=0;" vertex="1" parent="1">
          <mxGeometry x="360" y="360" width="10" height="10" as="geometry" />
        </mxCell>
        <mxCell id="D38nj8JYaBJNyV03cMOT-174" value="" style="ellipse;whiteSpace=wrap;html=1;aspect=fixed;container=0;" vertex="1" parent="1">
          <mxGeometry x="470" y="330" width="10" height="10" as="geometry" />
        </mxCell>
        <mxCell id="D38nj8JYaBJNyV03cMOT-175" value="" style="ellipse;whiteSpace=wrap;html=1;aspect=fixed;container=0;" vertex="1" parent="1">
          <mxGeometry x="470" y="410" width="10" height="10" as="geometry" />
        </mxCell>
        <mxCell id="D38nj8JYaBJNyV03cMOT-176" value="" style="ellipse;whiteSpace=wrap;html=1;aspect=fixed;container=0;" vertex="1" parent="1">
          <mxGeometry x="440" y="370" width="10" height="10" as="geometry" />
        </mxCell>
        <mxCell id="D38nj8JYaBJNyV03cMOT-177" value="" style="ellipse;whiteSpace=wrap;html=1;aspect=fixed;container=0;" vertex="1" parent="1">
          <mxGeometry x="460" y="340" width="10" height="10" as="geometry" />
        </mxCell>
        <mxCell id="D38nj8JYaBJNyV03cMOT-178" value="" style="ellipse;whiteSpace=wrap;html=1;aspect=fixed;container=0;" vertex="1" parent="1">
          <mxGeometry x="460" y="410" width="10" height="10" as="geometry" />
        </mxCell>
        <mxCell id="D38nj8JYaBJNyV03cMOT-180" value="" style="ellipse;whiteSpace=wrap;html=1;aspect=fixed;container=0;" vertex="1" parent="1">
          <mxGeometry x="450" y="370" width="10" height="10" as="geometry" />
        </mxCell>
        <mxCell id="D38nj8JYaBJNyV03cMOT-181" value="" style="ellipse;whiteSpace=wrap;html=1;aspect=fixed;container=0;" vertex="1" parent="1">
          <mxGeometry x="450" y="400" width="10" height="10" as="geometry" />
        </mxCell>
        <mxCell id="D38nj8JYaBJNyV03cMOT-182" value="" style="ellipse;whiteSpace=wrap;html=1;aspect=fixed;container=0;" vertex="1" parent="1">
          <mxGeometry x="430" y="370" width="10" height="10" as="geometry" />
        </mxCell>
        <mxCell id="D38nj8JYaBJNyV03cMOT-184" value="" style="ellipse;whiteSpace=wrap;html=1;aspect=fixed;container=0;" vertex="1" parent="1">
          <mxGeometry x="30" y="490" width="10" height="10" as="geometry" />
        </mxCell>
        <mxCell id="D38nj8JYaBJNyV03cMOT-185" value="" style="ellipse;whiteSpace=wrap;html=1;aspect=fixed;container=0;" vertex="1" parent="1">
          <mxGeometry x="30" y="500" width="10" height="10" as="geometry" />
        </mxCell>
        <mxCell id="D38nj8JYaBJNyV03cMOT-186" value="" style="ellipse;whiteSpace=wrap;html=1;aspect=fixed;container=0;" vertex="1" parent="1">
          <mxGeometry x="30" y="510" width="10" height="10" as="geometry" />
        </mxCell>
        <mxCell id="D38nj8JYaBJNyV03cMOT-187" value="" style="ellipse;whiteSpace=wrap;html=1;aspect=fixed;container=0;" vertex="1" parent="1">
          <mxGeometry x="30" y="520" width="10" height="10" as="geometry" />
        </mxCell>
        <mxCell id="D38nj8JYaBJNyV03cMOT-188" value="" style="ellipse;whiteSpace=wrap;html=1;aspect=fixed;container=0;" vertex="1" parent="1">
          <mxGeometry x="30" y="530" width="10" height="10" as="geometry" />
        </mxCell>
        <mxCell id="D38nj8JYaBJNyV03cMOT-189" value="" style="ellipse;whiteSpace=wrap;html=1;aspect=fixed;container=0;" vertex="1" parent="1">
          <mxGeometry x="30" y="540" width="10" height="10" as="geometry" />
        </mxCell>
        <mxCell id="D38nj8JYaBJNyV03cMOT-190" value="" style="ellipse;whiteSpace=wrap;html=1;aspect=fixed;container=0;" vertex="1" parent="1">
          <mxGeometry x="30" y="550" width="10" height="10" as="geometry" />
        </mxCell>
        <mxCell id="D38nj8JYaBJNyV03cMOT-191" value="" style="ellipse;whiteSpace=wrap;html=1;aspect=fixed;container=0;" vertex="1" parent="1">
          <mxGeometry x="30" y="560" width="10" height="10" as="geometry" />
        </mxCell>
        <mxCell id="D38nj8JYaBJNyV03cMOT-192" value="" style="ellipse;whiteSpace=wrap;html=1;aspect=fixed;container=0;" vertex="1" parent="1">
          <mxGeometry x="30" y="580" width="10" height="10" as="geometry" />
        </mxCell>
        <mxCell id="D38nj8JYaBJNyV03cMOT-193" value="" style="ellipse;whiteSpace=wrap;html=1;aspect=fixed;container=0;" vertex="1" parent="1">
          <mxGeometry x="30" y="570" width="10" height="10" as="geometry" />
        </mxCell>
        <mxCell id="D38nj8JYaBJNyV03cMOT-194" value="" style="ellipse;whiteSpace=wrap;html=1;aspect=fixed;container=0;" vertex="1" parent="1">
          <mxGeometry x="30" y="590" width="10" height="10" as="geometry" />
        </mxCell>
        <mxCell id="D38nj8JYaBJNyV03cMOT-195" value="" style="ellipse;whiteSpace=wrap;html=1;aspect=fixed;container=0;" vertex="1" parent="1">
          <mxGeometry x="30" y="600" width="10" height="10" as="geometry" />
        </mxCell>
        <mxCell id="D38nj8JYaBJNyV03cMOT-196" value="" style="ellipse;whiteSpace=wrap;html=1;aspect=fixed;container=0;" vertex="1" parent="1">
          <mxGeometry x="30" y="610" width="10" height="10" as="geometry" />
        </mxCell>
        <mxCell id="D38nj8JYaBJNyV03cMOT-197" value="" style="ellipse;whiteSpace=wrap;html=1;aspect=fixed;container=0;" vertex="1" parent="1">
          <mxGeometry x="30" y="620" width="10" height="10" as="geometry" />
        </mxCell>
        <mxCell id="D38nj8JYaBJNyV03cMOT-198" value="" style="ellipse;whiteSpace=wrap;html=1;aspect=fixed;container=0;" vertex="1" parent="1">
          <mxGeometry x="30" y="630" width="10" height="10" as="geometry" />
        </mxCell>
        <mxCell id="D38nj8JYaBJNyV03cMOT-199" value="" style="ellipse;whiteSpace=wrap;html=1;aspect=fixed;container=0;" vertex="1" parent="1">
          <mxGeometry x="30" y="470" width="10" height="10" as="geometry" />
        </mxCell>
        <mxCell id="D38nj8JYaBJNyV03cMOT-200" value="" style="ellipse;whiteSpace=wrap;html=1;aspect=fixed;container=0;" vertex="1" parent="1">
          <mxGeometry x="60" y="490" width="10" height="10" as="geometry" />
        </mxCell>
        <mxCell id="D38nj8JYaBJNyV03cMOT-202" value="" style="ellipse;whiteSpace=wrap;html=1;aspect=fixed;container=0;" vertex="1" parent="1">
          <mxGeometry x="70" y="480" width="10" height="10" as="geometry" />
        </mxCell>
        <mxCell id="D38nj8JYaBJNyV03cMOT-205" value="" style="ellipse;whiteSpace=wrap;html=1;aspect=fixed;container=0;" vertex="1" parent="1">
          <mxGeometry x="60" y="520" width="10" height="10" as="geometry" />
        </mxCell>
        <mxCell id="D38nj8JYaBJNyV03cMOT-206" value="" style="ellipse;whiteSpace=wrap;html=1;aspect=fixed;container=0;" vertex="1" parent="1">
          <mxGeometry x="70" y="510" width="10" height="10" as="geometry" />
        </mxCell>
        <mxCell id="D38nj8JYaBJNyV03cMOT-207" value="" style="ellipse;whiteSpace=wrap;html=1;aspect=fixed;container=0;" vertex="1" parent="1">
          <mxGeometry x="60" y="550" width="10" height="10" as="geometry" />
        </mxCell>
        <mxCell id="D38nj8JYaBJNyV03cMOT-208" value="" style="ellipse;whiteSpace=wrap;html=1;aspect=fixed;container=0;" vertex="1" parent="1">
          <mxGeometry x="70" y="540" width="10" height="10" as="geometry" />
        </mxCell>
        <mxCell id="D38nj8JYaBJNyV03cMOT-209" value="" style="ellipse;whiteSpace=wrap;html=1;aspect=fixed;container=0;" vertex="1" parent="1">
          <mxGeometry x="60" y="580" width="10" height="10" as="geometry" />
        </mxCell>
        <mxCell id="D38nj8JYaBJNyV03cMOT-210" value="" style="ellipse;whiteSpace=wrap;html=1;aspect=fixed;container=0;" vertex="1" parent="1">
          <mxGeometry x="70" y="570" width="10" height="10" as="geometry" />
        </mxCell>
        <mxCell id="D38nj8JYaBJNyV03cMOT-211" value="" style="ellipse;whiteSpace=wrap;html=1;aspect=fixed;container=0;" vertex="1" parent="1">
          <mxGeometry x="60" y="610" width="10" height="10" as="geometry" />
        </mxCell>
        <mxCell id="D38nj8JYaBJNyV03cMOT-212" value="" style="ellipse;whiteSpace=wrap;html=1;aspect=fixed;container=0;" vertex="1" parent="1">
          <mxGeometry x="70" y="600" width="10" height="10" as="geometry" />
        </mxCell>
        <mxCell id="D38nj8JYaBJNyV03cMOT-213" value="" style="ellipse;whiteSpace=wrap;html=1;aspect=fixed;container=0;" vertex="1" parent="1">
          <mxGeometry x="70" y="620" width="10" height="10" as="geometry" />
        </mxCell>
        <mxCell id="D38nj8JYaBJNyV03cMOT-214" value="" style="ellipse;whiteSpace=wrap;html=1;aspect=fixed;container=0;" vertex="1" parent="1">
          <mxGeometry x="70" y="630" width="10" height="10" as="geometry" />
        </mxCell>
      </root>
    </mxGraphModel>
  </diagram>
</mxfile>
